<svg width="773" height="449" viewBox="0 0 773 449" fill="none" xmlns="http://www.w3.org/2000/svg">
<g filter="url(#filter0_d_102_55)">
<path fill-rule="evenodd" clip-rule="evenodd" d="M308.888 0L309.504 0.596632V0H379.254V315H310.01L309.908 315.093L309.822 315H309.504V314.654L208.121 204.385L102.501 313.498L102.504 313.855L102.153 313.858L101.047 315H4.03021L4 314.971L308.888 0ZM256.715 154.184L309.504 211.6V99.649L256.715 154.184Z" fill="#435EBE"/>
<mask id="path-2-inside-1_102_55" fill="white">
<path fill-rule="evenodd" clip-rule="evenodd" d="M463 0H393.25V315H462.494L462.596 315.093L462.682 315H463V314.654L564.384 204.385L670.003 313.498L670 313.855L670.351 313.858L671.457 315H768.474L768.504 314.971L463.616 0L463 0.596617V0ZM515.789 154.184L463 99.649V211.6L515.789 154.184Z"/>
</mask>
<path fill-rule="evenodd" clip-rule="evenodd" d="M463 0H393.25V315H462.494L462.596 315.093L462.682 315H463V314.654L564.384 204.385L670.003 313.498L670 313.855L670.351 313.858L671.457 315H768.474L768.504 314.971L463.616 0L463 0.596617V0ZM515.789 154.184L463 99.649V211.6L515.789 154.184Z" fill="white"/>
<path d="M393.25 0V-1H392.25V0H393.25ZM463 0H464V-1H463V0ZM393.25 315H392.25V316H393.25V315ZM462.494 315L463.171 314.264L462.884 314H462.494V315ZM462.596 315.093L461.919 315.83L462.655 316.506L463.332 315.77L462.596 315.093ZM462.682 315V314H462.243L461.946 314.323L462.682 315ZM463 315V316H464V315H463ZM463 314.654L462.264 313.977L462 314.264V314.654H463ZM564.384 204.385L565.102 203.69L564.365 202.928L563.647 203.709L564.384 204.385ZM670.003 313.498L671.003 313.507L671.007 313.097L670.722 312.802L670.003 313.498ZM670 313.855L669 313.846L668.991 314.846L669.991 314.855L670 313.855ZM670.351 313.858L671.07 313.162L670.779 312.861L670.36 312.858L670.351 313.858ZM671.457 315L670.738 315.696L671.033 316H671.457V315ZM768.474 315V316H768.878L769.169 315.719L768.474 315ZM768.504 314.971L769.199 315.689L769.918 314.994L769.223 314.275L768.504 314.971ZM463.616 0L464.335 -0.695512L463.639 -1.41403L462.921 -0.718514L463.616 0ZM463 0.596617H462V2.95637L463.696 1.31513L463 0.596617ZM515.789 154.184L516.525 154.861L517.164 154.166L516.508 153.489L515.789 154.184ZM463 99.649L463.719 98.9535L462 97.1782V99.649H463ZM463 211.6H462V214.165L463.736 212.276L463 211.6ZM393.25 1H463V-1H393.25V1ZM394.25 315V0H392.25V315H394.25ZM462.494 314H393.25V316H462.494V314ZM463.273 314.357L463.171 314.264L461.817 315.736L461.919 315.83L463.273 314.357ZM461.946 314.323L461.86 314.417L463.332 315.77L463.418 315.677L461.946 314.323ZM463 314H462.682V316H463V314ZM462 314.654V315H464V314.654H462ZM563.647 203.709L462.264 313.977L463.736 315.331L565.12 205.062L563.647 203.709ZM670.722 312.802L565.102 203.69L563.665 205.081L669.285 314.193L670.722 312.802ZM671 313.863L671.003 313.507L669.003 313.489L669 313.846L671 313.863ZM670.36 312.858L670.009 312.855L669.991 314.855L670.343 314.858L670.36 312.858ZM672.176 314.304L671.07 313.162L669.633 314.553L670.738 315.696L672.176 314.304ZM768.474 314H671.457V316H768.474V314ZM767.809 314.252L767.778 314.281L769.169 315.719L769.199 315.689L767.809 314.252ZM462.898 0.695512L767.786 315.666L769.223 314.275L464.335 -0.695512L462.898 0.695512ZM463.696 1.31513L464.312 0.718514L462.921 -0.718514L462.304 -0.121897L463.696 1.31513ZM462 0V0.596617H464V0H462ZM516.508 153.489L463.719 98.9535L462.281 100.345L515.071 154.88L516.508 153.489ZM462 99.649V211.6H464V99.649H462ZM463.736 212.276L516.525 154.861L515.053 153.507L462.264 210.923L463.736 212.276Z" fill="#435EBE" mask="url(#path-2-inside-1_102_55)"/>
</g>
<path d="M249.93 382.32H231.59L228.65 391H216.12L233.9 341.86H247.76L265.54 391H252.87L249.93 382.32ZM246.85 373.08L240.76 355.09L234.74 373.08H246.85ZM282.921 341.86V391H270.951V341.86H282.921ZM322.186 382.32H303.846L300.906 391H288.376L306.156 341.86H320.016L337.796 391H325.126L322.186 382.32ZM319.106 373.08L313.016 355.09L306.996 373.08H319.106ZM355.177 341.86V391H343.207V341.86H355.177ZM414.036 341.86V351.45H401.016V391H389.046V351.45H376.026V341.86H414.036ZM432.013 351.45V361.39H448.043V370.63H432.013V381.41H450.143V391H420.043V341.86H450.143V351.45H432.013ZM488.504 382.32H470.164L467.224 391H454.694L472.474 341.86H486.334L504.114 391H491.444L488.504 382.32ZM485.424 373.08L479.334 355.09L473.314 373.08H485.424ZM565.176 341.86V391H553.206V361.53L542.216 391H532.556L521.496 361.46V391H509.526V341.86H523.666L537.456 375.88L551.106 341.86H565.176Z" fill="#435EBE"/>
<path d="M249.93 382.32L250.877 381.999L250.647 381.32H249.93V382.32ZM231.59 382.32V381.32H230.873L230.643 381.999L231.59 382.32ZM228.65 391V392H229.367L229.597 391.321L228.65 391ZM216.12 391L215.18 390.66L214.695 392H216.12V391ZM233.9 341.86V340.86H233.198L232.96 341.52L233.9 341.86ZM247.76 341.86L248.7 341.52L248.462 340.86H247.76V341.86ZM265.54 391V392H266.965L266.48 390.66L265.54 391ZM252.87 391L251.923 391.321L252.153 392H252.87V391ZM246.85 373.08V374.08H248.244L247.797 372.759L246.85 373.08ZM240.76 355.09L241.707 354.769L240.755 351.955L239.812 354.773L240.76 355.09ZM234.74 373.08L233.792 372.763L233.351 374.08H234.74V373.08ZM249.93 381.32H231.59V383.32H249.93V381.32ZM230.643 381.999L227.703 390.679L229.597 391.321L232.537 382.641L230.643 381.999ZM228.65 390H216.12V392H228.65V390ZM217.06 391.34L234.84 342.2L232.96 341.52L215.18 390.66L217.06 391.34ZM233.9 342.86H247.76V340.86H233.9V342.86ZM246.82 342.2L264.6 391.34L266.48 390.66L248.7 341.52L246.82 342.2ZM265.54 390H252.87V392H265.54V390ZM253.817 390.679L250.877 381.999L248.983 382.641L251.923 391.321L253.817 390.679ZM247.797 372.759L241.707 354.769L239.813 355.411L245.903 373.401L247.797 372.759ZM239.812 354.773L233.792 372.763L235.688 373.397L241.708 355.407L239.812 354.773ZM234.74 374.08H246.85V372.08H234.74V374.08ZM282.921 341.86H283.921V340.86H282.921V341.86ZM282.921 391V392H283.921V391H282.921ZM270.951 391H269.951V392H270.951V391ZM270.951 341.86V340.86H269.951V341.86H270.951ZM281.921 341.86V391H283.921V341.86H281.921ZM282.921 390H270.951V392H282.921V390ZM271.951 391V341.86H269.951V391H271.951ZM270.951 342.86H282.921V340.86H270.951V342.86ZM322.186 382.32L323.133 381.999L322.903 381.32H322.186V382.32ZM303.846 382.32V381.32H303.129L302.899 381.999L303.846 382.32ZM300.906 391V392H301.623L301.853 391.321L300.906 391ZM288.376 391L287.436 390.66L286.951 392H288.376V391ZM306.156 341.86V340.86H305.454L305.216 341.52L306.156 341.86ZM320.016 341.86L320.956 341.52L320.717 340.86H320.016V341.86ZM337.796 391V392H339.221L338.736 390.66L337.796 391ZM325.126 391L324.179 391.321L324.409 392H325.126V391ZM319.106 373.08V374.08H320.5L320.053 372.759L319.106 373.08ZM313.016 355.09L313.963 354.769L313.01 351.955L312.068 354.773L313.016 355.09ZM306.996 373.08L306.048 372.763L305.607 374.08H306.996V373.08ZM322.186 381.32H303.846V383.32H322.186V381.32ZM302.899 381.999L299.959 390.679L301.853 391.321L304.793 382.641L302.899 381.999ZM300.906 390H288.376V392H300.906V390ZM289.316 391.34L307.096 342.2L305.216 341.52L287.436 390.66L289.316 391.34ZM306.156 342.86H320.016V340.86H306.156V342.86ZM319.076 342.2L336.856 391.34L338.736 390.66L320.956 341.52L319.076 342.2ZM337.796 390H325.126V392H337.796V390ZM326.073 390.679L323.133 381.999L321.239 382.641L324.179 391.321L326.073 390.679ZM320.053 372.759L313.963 354.769L312.069 355.411L318.159 373.401L320.053 372.759ZM312.068 354.773L306.048 372.763L307.944 373.397L313.964 355.407L312.068 354.773ZM306.996 374.08H319.106V372.08H306.996V374.08ZM355.177 341.86H356.177V340.86H355.177V341.86ZM355.177 391V392H356.177V391H355.177ZM343.207 391H342.207V392H343.207V391ZM343.207 341.86V340.86H342.207V341.86H343.207ZM354.177 341.86V391H356.177V341.86H354.177ZM355.177 390H343.207V392H355.177V390ZM344.207 391V341.86H342.207V391H344.207ZM343.207 342.86H355.177V340.86H343.207V342.86ZM414.036 341.86H415.036V340.86H414.036V341.86ZM414.036 351.45V352.45H415.036V351.45H414.036ZM401.016 351.45V350.45H400.016V351.45H401.016ZM401.016 391V392H402.016V391H401.016ZM389.046 391H388.046V392H389.046V391ZM389.046 351.45H390.046V350.45H389.046V351.45ZM376.026 351.45H375.026V352.45H376.026V351.45ZM376.026 341.86V340.86H375.026V341.86H376.026ZM413.036 341.86V351.45H415.036V341.86H413.036ZM414.036 350.45H401.016V352.45H414.036V350.45ZM400.016 351.45V391H402.016V351.45H400.016ZM401.016 390H389.046V392H401.016V390ZM390.046 391V351.45H388.046V391H390.046ZM389.046 350.45H376.026V352.45H389.046V350.45ZM377.026 351.45V341.86H375.026V351.45H377.026ZM376.026 342.86H414.036V340.86H376.026V342.86ZM432.013 351.45V350.45H431.013V351.45H432.013ZM432.013 361.39H431.013V362.39H432.013V361.39ZM448.043 361.39H449.043V360.39H448.043V361.39ZM448.043 370.63V371.63H449.043V370.63H448.043ZM432.013 370.63V369.63H431.013V370.63H432.013ZM432.013 381.41H431.013V382.41H432.013V381.41ZM450.143 381.41H451.143V380.41H450.143V381.41ZM450.143 391V392H451.143V391H450.143ZM420.043 391H419.043V392H420.043V391ZM420.043 341.86V340.86H419.043V341.86H420.043ZM450.143 341.86H451.143V340.86H450.143V341.86ZM450.143 351.45V352.45H451.143V351.45H450.143ZM431.013 351.45V361.39H433.013V351.45H431.013ZM432.013 362.39H448.043V360.39H432.013V362.39ZM447.043 361.39V370.63H449.043V361.39H447.043ZM448.043 369.63H432.013V371.63H448.043V369.63ZM431.013 370.63V381.41H433.013V370.63H431.013ZM432.013 382.41H450.143V380.41H432.013V382.41ZM449.143 381.41V391H451.143V381.41H449.143ZM450.143 390H420.043V392H450.143V390ZM421.043 391V341.86H419.043V391H421.043ZM420.043 342.86H450.143V340.86H420.043V342.86ZM449.143 341.86V351.45H451.143V341.86H449.143ZM450.143 350.45H432.013V352.45H450.143V350.45ZM488.504 382.32L489.451 381.999L489.221 381.32H488.504V382.32ZM470.164 382.32V381.32H469.447L469.217 381.999L470.164 382.32ZM467.224 391V392H467.941L468.171 391.321L467.224 391ZM454.694 391L453.754 390.66L453.269 392H454.694V391ZM472.474 341.86V340.86H471.773L471.534 341.52L472.474 341.86ZM486.334 341.86L487.275 341.52L487.036 340.86H486.334V341.86ZM504.114 391V392H505.539L505.055 390.66L504.114 391ZM491.444 391L490.497 391.321L490.727 392H491.444V391ZM485.424 373.08V374.08H486.818L486.371 372.759L485.424 373.08ZM479.334 355.09L480.281 354.769L479.329 351.955L478.386 354.773L479.334 355.09ZM473.314 373.08L472.366 372.763L471.925 374.08H473.314V373.08ZM488.504 381.32H470.164V383.32H488.504V381.32ZM469.217 381.999L466.277 390.679L468.171 391.321L471.111 382.641L469.217 381.999ZM467.224 390H454.694V392H467.224V390ZM455.635 391.34L473.415 342.2L471.534 341.52L453.754 390.66L455.635 391.34ZM472.474 342.86H486.334V340.86H472.474V342.86ZM485.394 342.2L503.174 391.34L505.055 390.66L487.275 341.52L485.394 342.2ZM504.114 390H491.444V392H504.114V390ZM492.391 390.679L489.451 381.999L487.557 382.641L490.497 391.321L492.391 390.679ZM486.371 372.759L480.281 354.769L478.387 355.411L484.477 373.401L486.371 372.759ZM478.386 354.773L472.366 372.763L474.263 373.397L480.283 355.407L478.386 354.773ZM473.314 374.08H485.424V372.08H473.314V374.08ZM565.176 341.86H566.176V340.86H565.176V341.86ZM565.176 391V392H566.176V391H565.176ZM553.206 391H552.206V392H553.206V391ZM553.206 361.53H554.206L552.269 361.181L553.206 361.53ZM542.216 391V392H542.91L543.153 391.349L542.216 391ZM532.556 391L531.619 391.351L531.862 392H532.556V391ZM521.496 361.46L522.432 361.109L520.496 361.46H521.496ZM521.496 391V392H522.496V391H521.496ZM509.526 391H508.526V392H509.526V391ZM509.526 341.86V340.86H508.526V341.86H509.526ZM523.666 341.86L524.592 341.484L524.339 340.86H523.666V341.86ZM537.456 375.88L536.529 376.256L537.46 378.554L538.384 376.252L537.456 375.88ZM551.106 341.86V340.86H550.429L550.177 341.488L551.106 341.86ZM564.176 341.86V391H566.176V341.86H564.176ZM565.176 390H553.206V392H565.176V390ZM554.206 391V361.53H552.206V391H554.206ZM552.269 361.181L541.279 390.651L543.153 391.349L554.143 361.879L552.269 361.181ZM542.216 390H532.556V392H542.216V390ZM533.492 390.649L522.432 361.109L520.559 361.811L531.619 391.351L533.492 390.649ZM520.496 361.46V391H522.496V361.46H520.496ZM521.496 390H509.526V392H521.496V390ZM510.526 391V341.86H508.526V391H510.526ZM509.526 342.86H523.666V340.86H509.526V342.86ZM522.739 342.236L536.529 376.256L538.382 375.504L524.592 341.484L522.739 342.236ZM538.384 376.252L552.034 342.232L550.177 341.488L536.527 375.508L538.384 376.252ZM551.106 342.86H565.176V340.86H551.106V342.86Z" fill="#F2F7FF"/>
<defs>
<filter id="filter0_d_102_55" x="0" y="0" width="772.504" height="327.093" filterUnits="userSpaceOnUse" color-interpolation-filters="sRGB">
<feFlood flood-opacity="0" result="BackgroundImageFix"/>
<feColorMatrix in="SourceAlpha" type="matrix" values="0 0 0 0 0 0 0 0 0 0 0 0 0 0 0 0 0 0 127 0" result="hardAlpha"/>
<feOffset dy="8"/>
<feGaussianBlur stdDeviation="2"/>
<feComposite in2="hardAlpha" operator="out"/>
<feColorMatrix type="matrix" values="0 0 0 0 0 0 0 0 0 0 0 0 0 0 0 0 0 0 0.25 0"/>
<feBlend mode="normal" in2="BackgroundImageFix" result="effect1_dropShadow_102_55"/>
<feBlend mode="normal" in="SourceGraphic" in2="effect1_dropShadow_102_55" result="shape"/>
</filter>
</defs>
</svg>
