<svg width="348" height="200" viewBox="0 0 348 200" fill="none" xmlns="http://www.w3.org/2000/svg">
    <g filter="url(#filter0_d_102_55)">
        <path fill-rule="evenodd" clip-rule="evenodd"
            d="M139.506 0L139.78 0.265157V0H170.78V140H140.004L139.959 140.042L139.921 140H139.78V139.846L94.7202 90.838L47.7782 139.332L47.7796 139.491L47.6234 139.492L47.132 140H4.01343L4 139.987L139.506 0ZM116.318 68.5262L139.78 94.0442V44.2885L116.318 68.5262Z"
            fill="#435EBE" />
        <mask id="path-2-inside-1_102_55" fill="white">
            <path fill-rule="evenodd" clip-rule="evenodd"
                d="M208 0H177V140H207.775L207.82 140.042L207.859 140H208V139.846L253.059 90.838L300.001 139.332L300 139.491L300.156 139.492L300.648 140H343.766L343.78 139.987L208.274 0L208 0.265166V0ZM231.462 68.5262L208 44.2885V94.0442L231.462 68.5262Z" />
        </mask>
        <path fill-rule="evenodd" clip-rule="evenodd"
            d="M208 0H177V140H207.775L207.82 140.042L207.859 140H208V139.846L253.059 90.838L300.001 139.332L300 139.491L300.156 139.492L300.648 140H343.766L343.78 139.987L208.274 0L208 0.265166V0ZM231.462 68.5262L208 44.2885V94.0442L231.462 68.5262Z"
            fill="white" />
        <path
            d="M177 0V-1H176V0H177ZM208 0H209V-1H208V0ZM177 140H176V141H177V140ZM207.775 140L208.452 139.264L208.165 139H207.775V140ZM207.82 140.042L207.144 140.778L207.88 141.455L208.557 140.718L207.82 140.042ZM207.859 140V139H207.42L207.122 139.323L207.859 140ZM208 140V141H209V140H208ZM208 139.846L207.264 139.169L207 139.456V139.846H208ZM253.059 90.838L253.778 90.1425L253.041 89.3809L252.323 90.1612L253.059 90.838ZM300.001 139.332L301.001 139.341L301.005 138.931L300.72 138.637L300.001 139.332ZM300 139.491L299 139.482L298.991 140.482L299.991 140.491L300 139.491ZM300.156 139.492L300.875 138.797L300.583 138.496L300.165 138.492L300.156 139.492ZM300.648 140L299.929 140.696L300.224 141H300.648V140ZM343.766 140V141H344.171L344.462 140.718L343.766 140ZM343.78 139.987L344.475 140.705L345.194 140.01L344.498 139.291L343.78 139.987ZM208.274 0L208.992 -0.695512L208.297 -1.41403L207.578 -0.718514L208.274 0ZM208 0.265166H207V2.62491L208.696 0.98368L208 0.265166ZM231.462 68.5262L232.198 69.2031L232.837 68.5086L232.18 67.8307L231.462 68.5262ZM208 44.2885L208.719 43.5929L207 41.8176V44.2885H208ZM208 94.0442H207V96.6094L208.736 94.7211L208 94.0442ZM177 1H208V-1H177V1ZM178 140V0H176V140H178ZM207.775 139H177V141H207.775V139ZM208.497 139.305L208.452 139.264L207.098 140.736L207.144 140.778L208.497 139.305ZM207.122 139.323L207.084 139.365L208.557 140.718L208.595 140.677L207.122 139.323ZM208 139H207.859V141H208V139ZM207 139.846V140H209V139.846H207ZM252.323 90.1612L207.264 139.169L208.736 140.523L253.795 91.5148L252.323 90.1612ZM300.72 138.637L253.778 90.1425L252.341 91.5335L299.283 140.028L300.72 138.637ZM301 139.5L301.001 139.341L299.001 139.324L299 139.482L301 139.5ZM300.165 138.492L300.009 138.491L299.991 140.491L300.147 140.492L300.165 138.492ZM301.366 139.304L300.875 138.797L299.438 140.188L299.929 140.696L301.366 139.304ZM343.766 139H300.648V141H343.766V139ZM343.084 139.269L343.071 139.282L344.462 140.718L344.475 140.705L343.084 139.269ZM207.555 0.695512L343.061 140.683L344.498 139.291L208.992 -0.695512L207.555 0.695512ZM208.696 0.98368L208.969 0.718514L207.578 -0.718514L207.304 -0.453348L208.696 0.98368ZM207 0V0.265166H209V0H207ZM232.18 67.8307L208.719 43.5929L207.281 44.984L230.743 69.2218L232.18 67.8307ZM207 44.2885V94.0442H209V44.2885H207ZM208.736 94.7211L232.198 69.2031L230.726 67.8494L207.264 93.3674L208.736 94.7211Z"
            fill="#435EBE" mask="url(#path-2-inside-1_102_55)" />
    </g>
    <path
        d="M99.96 179.04H89.48L87.8 184H80.64L90.8 155.92H98.72L108.88 184H101.64L99.96 179.04ZM98.2 173.76L94.72 163.48L91.28 173.76H98.2ZM118.812 155.92V184H111.972V155.92H118.812ZM141.249 179.04H130.769L129.089 184H121.929L132.089 155.92H140.009L150.169 184H142.929L141.249 179.04ZM139.489 173.76L136.009 163.48L132.569 173.76H139.489ZM160.101 155.92V184H153.261V155.92H160.101ZM193.735 155.92V161.4H186.295V184H179.455V161.4H172.015V155.92H193.735ZM204.008 161.4V167.08H213.168V172.36H204.008V178.52H214.368V184H197.168V155.92H214.368V161.4H204.008ZM236.288 179.04H225.808L224.128 184H216.968L227.128 155.92H235.048L245.208 184H237.968L236.288 179.04ZM234.528 173.76L231.048 163.48L227.608 173.76H234.528ZM280.1 155.92V184H273.26V167.16L266.98 184H261.46L255.14 167.12V184H248.3V155.92H256.38L264.26 175.36L272.06 155.92H280.1Z"
        fill="#435EBE" />
    <path
        d="M99.96 179.04L100.907 178.719L100.677 178.04H99.96V179.04ZM89.48 179.04V178.04H88.7629L88.5329 178.719L89.48 179.04ZM87.8 184V185H88.5171L88.7471 184.321L87.8 184ZM80.64 184L79.6997 183.66L79.2147 185H80.64V184ZM90.8 155.92V154.92H90.0984L89.8597 155.58L90.8 155.92ZM98.72 155.92L99.6603 155.58L99.4216 154.92H98.72V155.92ZM108.88 184V185H110.305L109.82 183.66L108.88 184ZM101.64 184L100.693 184.321L100.923 185H101.64V184ZM98.2 173.76V174.76H99.5943L99.1472 173.439L98.2 173.76ZM94.72 163.48L95.6672 163.159L94.7145 160.345L93.7717 163.163L94.72 163.48ZM91.28 173.76L90.3317 173.443L89.8909 174.76H91.28V173.76ZM99.96 178.04H89.48V180.04H99.96V178.04ZM88.5329 178.719L86.8529 183.679L88.7471 184.321L90.4271 179.361L88.5329 178.719ZM87.8 183H80.64V185H87.8V183ZM81.5803 184.34L91.7403 156.26L89.8597 155.58L79.6997 183.66L81.5803 184.34ZM90.8 156.92H98.72V154.92H90.8V156.92ZM97.7797 156.26L107.94 184.34L109.82 183.66L99.6603 155.58L97.7797 156.26ZM108.88 183H101.64V185H108.88V183ZM102.587 183.679L100.907 178.719L99.0129 179.361L100.693 184.321L102.587 183.679ZM99.1472 173.439L95.6672 163.159L93.7728 163.801L97.2528 174.081L99.1472 173.439ZM93.7717 163.163L90.3317 173.443L92.2283 174.077L95.6683 163.797L93.7717 163.163ZM91.28 174.76H98.2V172.76H91.28V174.76ZM118.812 155.92H119.812V154.92H118.812V155.92ZM118.812 184V185H119.812V184H118.812ZM111.972 184H110.972V185H111.972V184ZM111.972 155.92V154.92H110.972V155.92H111.972ZM117.812 155.92V184H119.812V155.92H117.812ZM118.812 183H111.972V185H118.812V183ZM112.972 184V155.92H110.972V184H112.972ZM111.972 156.92H118.812V154.92H111.972V156.92ZM141.249 179.04L142.196 178.719L141.966 178.04H141.249V179.04ZM130.769 179.04V178.04H130.052L129.822 178.719L130.769 179.04ZM129.089 184V185H129.806L130.036 184.321L129.089 184ZM121.929 184L120.989 183.66L120.504 185H121.929V184ZM132.089 155.92V154.92H131.387L131.149 155.58L132.089 155.92ZM140.009 155.92L140.949 155.58L140.711 154.92H140.009V155.92ZM150.169 184V185H151.594L151.109 183.66L150.169 184ZM142.929 184L141.982 184.321L142.212 185H142.929V184ZM139.489 173.76V174.76H140.883L140.436 173.439L139.489 173.76ZM136.009 163.48L136.956 163.159L136.004 160.345L135.061 163.163L136.009 163.48ZM132.569 173.76L131.621 173.443L131.18 174.76H132.569V173.76ZM141.249 178.04H130.769V180.04H141.249V178.04ZM129.822 178.719L128.142 183.679L130.036 184.321L131.716 179.361L129.822 178.719ZM129.089 183H121.929V185H129.089V183ZM122.869 184.34L133.029 156.26L131.149 155.58L120.989 183.66L122.869 184.34ZM132.089 156.92H140.009V154.92H132.089V156.92ZM139.069 156.26L149.229 184.34L151.109 183.66L140.949 155.58L139.069 156.26ZM150.169 183H142.929V185H150.169V183ZM143.876 183.679L142.196 178.719L140.302 179.361L141.982 184.321L143.876 183.679ZM140.436 173.439L136.956 163.159L135.062 163.801L138.542 174.081L140.436 173.439ZM135.061 163.163L131.621 173.443L133.517 174.077L136.957 163.797L135.061 163.163ZM132.569 174.76H139.489V172.76H132.569V174.76ZM160.101 155.92H161.101V154.92H160.101V155.92ZM160.101 184V185H161.101V184H160.101ZM153.261 184H152.261V185H153.261V184ZM153.261 155.92V154.92H152.261V155.92H153.261ZM159.101 155.92V184H161.101V155.92H159.101ZM160.101 183H153.261V185H160.101V183ZM154.261 184V155.92H152.261V184H154.261ZM153.261 156.92H160.101V154.92H153.261V156.92ZM193.735 155.92H194.735V154.92H193.735V155.92ZM193.735 161.4V162.4H194.735V161.4H193.735ZM186.295 161.4V160.4H185.295V161.4H186.295ZM186.295 184V185H187.295V184H186.295ZM179.455 184H178.455V185H179.455V184ZM179.455 161.4H180.455V160.4H179.455V161.4ZM172.015 161.4H171.015V162.4H172.015V161.4ZM172.015 155.92V154.92H171.015V155.92H172.015ZM192.735 155.92V161.4H194.735V155.92H192.735ZM193.735 160.4H186.295V162.4H193.735V160.4ZM185.295 161.4V184H187.295V161.4H185.295ZM186.295 183H179.455V185H186.295V183ZM180.455 184V161.4H178.455V184H180.455ZM179.455 160.4H172.015V162.4H179.455V160.4ZM173.015 161.4V155.92H171.015V161.4H173.015ZM172.015 156.92H193.735V154.92H172.015V156.92ZM204.008 161.4V160.4H203.008V161.4H204.008ZM204.008 167.08H203.008V168.08H204.008V167.08ZM213.168 167.08H214.168V166.08H213.168V167.08ZM213.168 172.36V173.36H214.168V172.36H213.168ZM204.008 172.36V171.36H203.008V172.36H204.008ZM204.008 178.52H203.008V179.52H204.008V178.52ZM214.368 178.52H215.368V177.52H214.368V178.52ZM214.368 184V185H215.368V184H214.368ZM197.168 184H196.168V185H197.168V184ZM197.168 155.92V154.92H196.168V155.92H197.168ZM214.368 155.92H215.368V154.92H214.368V155.92ZM214.368 161.4V162.4H215.368V161.4H214.368ZM203.008 161.4V167.08H205.008V161.4H203.008ZM204.008 168.08H213.168V166.08H204.008V168.08ZM212.168 167.08V172.36H214.168V167.08H212.168ZM213.168 171.36H204.008V173.36H213.168V171.36ZM203.008 172.36V178.52H205.008V172.36H203.008ZM204.008 179.52H214.368V177.52H204.008V179.52ZM213.368 178.52V184H215.368V178.52H213.368ZM214.368 183H197.168V185H214.368V183ZM198.168 184V155.92H196.168V184H198.168ZM197.168 156.92H214.368V154.92H197.168V156.92ZM213.368 155.92V161.4H215.368V155.92H213.368ZM214.368 160.4H204.008V162.4H214.368V160.4ZM236.288 179.04L237.235 178.719L237.005 178.04H236.288V179.04ZM225.808 179.04V178.04H225.091L224.861 178.719L225.808 179.04ZM224.128 184V185H224.845L225.075 184.321L224.128 184ZM216.968 184L216.028 183.66L215.543 185H216.968V184ZM227.128 155.92V154.92H226.427L226.188 155.58L227.128 155.92ZM235.048 155.92L235.988 155.58L235.75 154.92H235.048V155.92ZM245.208 184V185H246.633L246.148 183.66L245.208 184ZM237.968 184L237.021 184.321L237.251 185H237.968V184ZM234.528 173.76V174.76H235.922L235.475 173.439L234.528 173.76ZM231.048 163.48L231.995 163.159L231.043 160.345L230.1 163.163L231.048 163.48ZM227.608 173.76L226.66 173.443L226.219 174.76H227.608V173.76ZM236.288 178.04H225.808V180.04H236.288V178.04ZM224.861 178.719L223.181 183.679L225.075 184.321L226.755 179.361L224.861 178.719ZM224.128 183H216.968V185H224.128V183ZM217.908 184.34L228.068 156.26L226.188 155.58L216.028 183.66L217.908 184.34ZM227.128 156.92H235.048V154.92H227.128V156.92ZM234.108 156.26L244.268 184.34L246.148 183.66L235.988 155.58L234.108 156.26ZM245.208 183H237.968V185H245.208V183ZM238.915 183.679L237.235 178.719L235.341 179.361L237.021 184.321L238.915 183.679ZM235.475 173.439L231.995 163.159L230.101 163.801L233.581 174.081L235.475 173.439ZM230.1 163.163L226.66 173.443L228.556 174.077L231.996 163.797L230.1 163.163ZM227.608 174.76H234.528V172.76H227.608V174.76ZM280.1 155.92H281.1V154.92H280.1V155.92ZM280.1 184V185H281.1V184H280.1ZM273.26 184H272.26V185H273.26V184ZM273.26 167.16H274.26L272.323 166.811L273.26 167.16ZM266.98 184V185H267.675L267.917 184.349L266.98 184ZM261.46 184L260.524 184.351L260.767 185H261.46V184ZM255.14 167.12L256.077 166.769L254.14 167.12H255.14ZM255.14 184V185H256.14V184H255.14ZM248.3 184H247.3V185H248.3V184ZM248.3 155.92V154.92H247.3V155.92H248.3ZM256.38 155.92L257.307 155.544L257.054 154.92H256.38V155.92ZM264.26 175.36L263.334 175.736L264.265 178.034L265.188 175.732L264.26 175.36ZM272.06 155.92V154.92H271.384L271.132 155.548L272.06 155.92ZM279.1 155.92V184H281.1V155.92H279.1ZM280.1 183H273.26V185H280.1V183ZM274.26 184V167.16H272.26V184H274.26ZM272.323 166.811L266.043 183.651L267.917 184.349L274.197 167.509L272.323 166.811ZM266.98 183H261.46V185H266.98V183ZM262.397 183.649L256.077 166.769L254.204 167.471L260.524 184.351L262.397 183.649ZM254.14 167.12V184H256.14V167.12H254.14ZM255.14 183H248.3V185H255.14V183ZM249.3 184V155.92H247.3V184H249.3ZM248.3 156.92H256.38V154.92H248.3V156.92ZM255.454 156.296L263.334 175.736L265.187 174.984L257.307 155.544L255.454 156.296ZM265.188 175.732L272.988 156.292L271.132 155.548L263.332 174.988L265.188 175.732ZM272.06 156.92H280.1V154.92H272.06V156.92Z"
        fill="#F2F7FF" />
    <defs>
        <filter id="filter0_d_102_55" x="0" y="0" width="347.78" height="152.042"
            filterUnits="userSpaceOnUse" color-interpolation-filters="sRGB">
            <feFlood flood-opacity="0" result="BackgroundImageFix" />
            <feColorMatrix in="SourceAlpha" type="matrix"
                values="0 0 0 0 0 0 0 0 0 0 0 0 0 0 0 0 0 0 127 0" result="hardAlpha" />
            <feOffset dy="8" />
            <feGaussianBlur stdDeviation="2" />
            <feComposite in2="hardAlpha" operator="out" />
            <feColorMatrix type="matrix" values="0 0 0 0 0 0 0 0 0 0 0 0 0 0 0 0 0 0 0.25 0" />
            <feBlend mode="normal" in2="BackgroundImageFix" result="effect1_dropShadow_102_55" />
            <feBlend mode="normal" in="SourceGraphic" in2="effect1_dropShadow_102_55" result="shape" />
        </filter>
    </defs>
</svg>
